<mxfile host="app.diagrams.net" agent="Mozilla/5.0 (Windows NT 10.0; Win64; x64) AppleWebKit/537.36 (KHTML, like Gecko) Chrome/132.0.0.0 Safari/537.36 OPR/117.0.0.0" version="26.2.9">
  <diagram id="6a731a19-8d31-9384-78a2-239565b7b9f0" name="Page-1">
    <mxGraphModel dx="2801" dy="1776" grid="1" gridSize="10" guides="1" tooltips="1" connect="1" arrows="1" fold="1" page="1" pageScale="1" pageWidth="1169" pageHeight="827" background="none" math="0" shadow="0">
      <root>
        <mxCell id="0" />
        <mxCell id="1" parent="0" />
        <mxCell id="1745" value="" style="edgeStyle=none;rounded=0;jumpStyle=none;html=1;shadow=0;labelBackgroundColor=none;startArrow=none;startFill=0;endArrow=classic;endFill=1;jettySize=auto;orthogonalLoop=1;strokeColor=#2F5B7C;strokeWidth=3;fontFamily=Helvetica;fontSize=16;fontColor=#23445D;spacing=5;" parent="1" source="1749" target="1764" edge="1">
          <mxGeometry relative="1" as="geometry" />
        </mxCell>
        <mxCell id="1746" value="" style="edgeStyle=none;rounded=0;jumpStyle=none;html=1;shadow=0;labelBackgroundColor=none;startArrow=none;startFill=0;endArrow=classic;endFill=1;jettySize=auto;orthogonalLoop=1;strokeColor=#2F5B7C;strokeWidth=3;fontFamily=Helvetica;fontSize=16;fontColor=#23445D;spacing=5;" parent="1" source="1749" target="1771" edge="1">
          <mxGeometry relative="1" as="geometry" />
        </mxCell>
        <mxCell id="1747" value="" style="edgeStyle=none;rounded=0;jumpStyle=none;html=1;shadow=0;labelBackgroundColor=none;startArrow=none;startFill=0;endArrow=classic;endFill=1;jettySize=auto;orthogonalLoop=1;strokeColor=#2F5B7C;strokeWidth=3;fontFamily=Helvetica;fontSize=16;fontColor=#23445D;spacing=5;" parent="1" source="1749" target="1760" edge="1">
          <mxGeometry relative="1" as="geometry" />
        </mxCell>
        <mxCell id="1749" value="&lt;i&gt;&lt;font style=&quot;font-size: 20px;&quot;&gt;Organizaciones&lt;/font&gt;&lt;/i&gt;" style="rounded=1;whiteSpace=wrap;html=1;shadow=0;labelBackgroundColor=none;strokeColor=none;strokeWidth=3;fillColor=#2F5B7C;fontFamily=Helvetica;fontSize=16;fontColor=#FFFFFF;align=center;fontStyle=1;spacing=5;arcSize=7;perimeterSpacing=2;" parent="1" vertex="1">
          <mxGeometry x="487.5" y="370.25" width="165" height="90.5" as="geometry" />
        </mxCell>
        <mxCell id="1758" value="" style="edgeStyle=none;rounded=0;jumpStyle=none;html=1;shadow=0;labelBackgroundColor=none;startArrow=none;startFill=0;endArrow=classic;endFill=1;jettySize=auto;orthogonalLoop=1;strokeColor=#1699D3;strokeWidth=3;fontFamily=Helvetica;fontSize=14;fontColor=#FFFFFF;spacing=5;" parent="1" source="1760" target="1762" edge="1">
          <mxGeometry relative="1" as="geometry" />
        </mxCell>
        <mxCell id="1760" value="&lt;i&gt;&lt;font style=&quot;font-size: 16px;&quot;&gt;Definición&lt;/font&gt;&lt;/i&gt;" style="rounded=1;whiteSpace=wrap;html=1;shadow=0;labelBackgroundColor=none;strokeColor=none;strokeWidth=3;fillColor=#1699d3;fontFamily=Helvetica;fontSize=14;fontColor=#FFFFFF;align=center;spacing=5;fontStyle=1;arcSize=7;perimeterSpacing=2;" parent="1" vertex="1">
          <mxGeometry x="495" y="495.25" width="150" height="60" as="geometry" />
        </mxCell>
        <mxCell id="1762" value="&lt;font style=&quot;font-size: 15px;&quot;&gt;Conjunto de personas que trabajan de manera sistematizada con un fin en común y un propósito.&lt;/font&gt;" style="rounded=1;whiteSpace=wrap;html=1;shadow=0;labelBackgroundColor=none;strokeColor=none;strokeWidth=3;fillColor=#64bbe2;fontFamily=Helvetica;fontSize=14;fontColor=#FFFFFF;align=center;spacing=5;arcSize=7;perimeterSpacing=2;" parent="1" vertex="1">
          <mxGeometry x="427.5" y="594.75" width="285" height="120" as="geometry" />
        </mxCell>
        <mxCell id="1764" value="&lt;i&gt;&lt;font style=&quot;font-size: 16px;&quot;&gt;Elementos Clave&lt;/font&gt;&lt;/i&gt;" style="rounded=1;whiteSpace=wrap;html=1;shadow=0;labelBackgroundColor=none;strokeColor=none;strokeWidth=3;fillColor=#F08705;fontFamily=Helvetica;fontSize=14;fontColor=#FFFFFF;align=center;spacing=5;fontStyle=1;arcSize=7;perimeterSpacing=2;" parent="1" vertex="1">
          <mxGeometry x="190" y="385.5" width="150" height="60" as="geometry" />
        </mxCell>
        <mxCell id="1765" value="&lt;b&gt;&lt;font style=&quot;font-size: 16px;&quot;&gt;Administración&lt;/font&gt;&lt;/b&gt;&lt;div&gt;-planear&lt;/div&gt;&lt;div&gt;-organizar&lt;/div&gt;&lt;div&gt;-dirigir&lt;/div&gt;&lt;div&gt;-controlar&lt;/div&gt;" style="rounded=1;whiteSpace=wrap;html=1;shadow=0;labelBackgroundColor=none;strokeColor=none;strokeWidth=3;fillColor=#f5af58;fontFamily=Helvetica;fontSize=14;fontColor=#FFFFFF;align=center;spacing=5;arcSize=7;perimeterSpacing=2;" parent="1" vertex="1">
          <mxGeometry x="-10" y="70" width="155" height="110" as="geometry" />
        </mxCell>
        <mxCell id="1766" value="" style="edgeStyle=none;rounded=0;jumpStyle=none;html=1;shadow=0;labelBackgroundColor=none;startArrow=none;startFill=0;endArrow=classic;endFill=1;jettySize=auto;orthogonalLoop=1;strokeColor=#F08705;strokeWidth=3;fontFamily=Helvetica;fontSize=14;fontColor=#FFFFFF;spacing=5;exitX=0.5;exitY=0;exitDx=0;exitDy=0;" parent="1" source="1764" target="1765" edge="1">
          <mxGeometry relative="1" as="geometry">
            <Array as="points">
              <mxPoint x="240" y="200" />
              <mxPoint x="230" y="130" />
            </Array>
          </mxGeometry>
        </mxCell>
        <mxCell id="1767" value="&lt;b&gt;&lt;font style=&quot;font-size: 16px;&quot;&gt;Recursos&lt;/font&gt;&lt;/b&gt;&lt;div&gt;-que tengo y como lo puedo usar. Además de adaptarse a los cambios tecnológicos y saber aplicarlos.&lt;/div&gt;" style="rounded=1;whiteSpace=wrap;html=1;shadow=0;labelBackgroundColor=none;strokeColor=none;strokeWidth=3;fillColor=#f5af58;fontFamily=Helvetica;fontSize=14;fontColor=#FFFFFF;align=center;spacing=5;arcSize=7;perimeterSpacing=2;" parent="1" vertex="1">
          <mxGeometry x="173.75" y="495.25" width="182.5" height="120" as="geometry" />
        </mxCell>
        <mxCell id="1768" value="" style="edgeStyle=none;rounded=0;jumpStyle=none;html=1;shadow=0;labelBackgroundColor=none;startArrow=none;startFill=0;endArrow=classic;endFill=1;jettySize=auto;orthogonalLoop=1;strokeColor=#F08705;strokeWidth=3;fontFamily=Helvetica;fontSize=14;fontColor=#FFFFFF;spacing=5;" parent="1" source="1764" target="1767" edge="1">
          <mxGeometry relative="1" as="geometry" />
        </mxCell>
        <mxCell id="1769" value="&lt;b&gt;&lt;font style=&quot;font-size: 16px;&quot;&gt;Objetivos&amp;nbsp;&lt;/font&gt;&lt;/b&gt;&lt;div&gt;-tener claro a donde quiero llegar. Tener un propósito.&lt;/div&gt;" style="rounded=1;whiteSpace=wrap;html=1;shadow=0;labelBackgroundColor=none;strokeColor=none;strokeWidth=3;fillColor=#f5af58;fontFamily=Helvetica;fontSize=14;fontColor=#FFFFFF;align=center;spacing=5;arcSize=7;perimeterSpacing=2;" parent="1" vertex="1">
          <mxGeometry x="-55" y="219" width="190" height="95.5" as="geometry" />
        </mxCell>
        <mxCell id="1770" value="" style="edgeStyle=none;rounded=0;jumpStyle=none;html=1;shadow=0;labelBackgroundColor=none;startArrow=none;startFill=0;endArrow=classic;endFill=1;jettySize=auto;orthogonalLoop=1;strokeColor=#F08705;strokeWidth=3;fontFamily=Helvetica;fontSize=14;fontColor=#FFFFFF;spacing=5;entryX=1;entryY=0.5;entryDx=0;entryDy=0;exitX=0.5;exitY=0;exitDx=0;exitDy=0;" parent="1" source="1764" edge="1">
          <mxGeometry relative="1" as="geometry">
            <mxPoint x="260" y="380" as="sourcePoint" />
            <mxPoint x="135.00000000000045" y="268.75" as="targetPoint" />
            <Array as="points">
              <mxPoint x="230" y="269" />
            </Array>
          </mxGeometry>
        </mxCell>
        <mxCell id="1771" value="&lt;i&gt;&lt;font style=&quot;font-size: 16px;&quot;&gt;Tipos de&amp;nbsp; Organizaciones&lt;/font&gt;&lt;/i&gt;&lt;div&gt;&lt;div&gt;&lt;font style=&quot;font-weight: normal; font-size: 15px;&quot;&gt;-Gubernamentales&lt;/font&gt;&lt;/div&gt;&lt;div&gt;&lt;font style=&quot;font-weight: normal; font-size: 15px;&quot;&gt;-Internacionales&lt;/font&gt;&lt;/div&gt;&lt;/div&gt;&lt;div&gt;&lt;font style=&quot;font-weight: normal; font-size: 15px;&quot;&gt;-Particulares&lt;/font&gt;&lt;/div&gt;" style="rounded=1;whiteSpace=wrap;html=1;shadow=0;labelBackgroundColor=none;strokeColor=none;strokeWidth=3;fillColor=#12aab5;fontFamily=Helvetica;fontSize=14;fontColor=#FFFFFF;align=center;spacing=5;fontStyle=1;arcSize=7;perimeterSpacing=2;" parent="1" vertex="1">
          <mxGeometry x="735" y="367.12" width="205" height="96.75" as="geometry" />
        </mxCell>
        <mxCell id="1776" value="&lt;div style=&quot;text-align: center;&quot;&gt;&lt;span style=&quot;background-color: transparent; color: light-dark(rgb(255, 255, 255), rgb(18, 18, 18));&quot;&gt;&lt;b&gt;&lt;font style=&quot;font-size: 16px;&quot;&gt;Ciclo de Vida&lt;/font&gt;&lt;/b&gt;&lt;/span&gt;&lt;/div&gt;&lt;div style=&quot;text-align: center;&quot;&gt;&lt;font style=&quot;font-size: 15px;&quot;&gt;-Nacimiento, crecimiento, madurez y muerte o en su defecto renovación.&amp;nbsp;&lt;/font&gt;&lt;/div&gt;" style="rounded=1;whiteSpace=wrap;html=1;shadow=0;labelBackgroundColor=none;strokeColor=none;strokeWidth=3;fillColor=#61c6ce;fontFamily=Helvetica;fontSize=14;fontColor=#FFFFFF;align=left;spacing=5;fontStyle=0;arcSize=7;perimeterSpacing=2;" parent="1" vertex="1">
          <mxGeometry x="743.75" y="520" width="187.5" height="110" as="geometry" />
        </mxCell>
        <mxCell id="1777" value="" style="edgeStyle=none;rounded=1;jumpStyle=none;html=1;shadow=0;labelBackgroundColor=none;startArrow=none;startFill=0;jettySize=auto;orthogonalLoop=1;strokeColor=#12AAB5;strokeWidth=3;fontFamily=Helvetica;fontSize=14;fontColor=#FFFFFF;spacing=5;fontStyle=1;fillColor=#b0e3e6;" parent="1" source="1771" target="1776" edge="1">
          <mxGeometry relative="1" as="geometry" />
        </mxCell>
        <mxCell id="1778" value="&lt;b&gt;&lt;font style=&quot;font-size: 16px;&quot;&gt;&lt;i&gt;Estructura Organizacional&lt;/i&gt;&lt;/font&gt;&lt;/b&gt;" style="rounded=1;whiteSpace=wrap;html=1;shadow=0;labelBackgroundColor=none;strokeColor=#3700CC;strokeWidth=3;fillColor=#6a00ff;fontFamily=Helvetica;fontSize=14;fontColor=#ffffff;align=center;spacing=5;fontStyle=0;arcSize=7;perimeterSpacing=2;" parent="1" vertex="1">
          <mxGeometry x="495" y="240.5" width="150" height="60" as="geometry" />
        </mxCell>
        <mxCell id="2ArWXH6vpnP7hn2-1Gg6-1781" value="&lt;b&gt;&lt;font style=&quot;font-size: 16px;&quot;&gt;Estructura&lt;/font&gt;&lt;/b&gt;&lt;div&gt;&lt;b&gt;-&lt;/b&gt;tener todo documentado y detallado para mantener una estructura fija sin perder el rumbo inicial.&amp;nbsp;&lt;/div&gt;" style="rounded=1;whiteSpace=wrap;html=1;shadow=0;labelBackgroundColor=none;strokeColor=none;strokeWidth=3;fillColor=#f5af58;fontFamily=Helvetica;fontSize=14;fontColor=#FFFFFF;align=center;spacing=5;arcSize=7;perimeterSpacing=2;" parent="1" vertex="1">
          <mxGeometry x="-55" y="353.25" width="190" height="124.5" as="geometry" />
        </mxCell>
        <mxCell id="2ArWXH6vpnP7hn2-1Gg6-1782" value="" style="edgeStyle=none;rounded=0;jumpStyle=none;html=1;shadow=0;labelBackgroundColor=none;startArrow=none;startFill=0;endArrow=classic;endFill=1;jettySize=auto;orthogonalLoop=1;strokeColor=#F08705;strokeWidth=3;fontFamily=Helvetica;fontSize=14;fontColor=#FFFFFF;spacing=5;entryX=1;entryY=0.5;entryDx=0;entryDy=0;exitX=0;exitY=0.5;exitDx=0;exitDy=0;" parent="1" source="1764" target="2ArWXH6vpnP7hn2-1Gg6-1781" edge="1">
          <mxGeometry relative="1" as="geometry">
            <mxPoint x="190" y="427" as="sourcePoint" />
            <mxPoint x="133" y="350" as="targetPoint" />
          </mxGeometry>
        </mxCell>
        <mxCell id="2ArWXH6vpnP7hn2-1Gg6-1790" value="&lt;b&gt;&lt;font style=&quot;font-size: 16px;&quot;&gt;Matricial&lt;/font&gt;&lt;/b&gt;&lt;div&gt;-Organiza a los empleados en quipos que reponder a distintos lideres&lt;/div&gt;" style="whiteSpace=wrap;html=1;fontSize=14;fillColor=#a20025;strokeColor=#6F0000;fontColor=#ffffff;rounded=1;shadow=0;labelBackgroundColor=none;strokeWidth=3;spacing=5;fontStyle=0;arcSize=7;" parent="1" vertex="1">
          <mxGeometry x="495" y="-120" width="173.75" height="100" as="geometry" />
        </mxCell>
        <mxCell id="2ArWXH6vpnP7hn2-1Gg6-1792" value="&lt;b&gt;&lt;font style=&quot;font-size: 16px;&quot;&gt;Por Procesos&lt;/font&gt;&lt;/b&gt;&lt;div&gt;-Organiza una empresa en torno a los procesos que se llevan cabo.&amp;nbsp;&lt;/div&gt;" style="whiteSpace=wrap;html=1;fontSize=14;fillColor=#a20025;strokeColor=#6F0000;fontColor=#ffffff;rounded=1;shadow=0;labelBackgroundColor=none;strokeWidth=3;spacing=5;fontStyle=0;arcSize=7;" parent="1" vertex="1">
          <mxGeometry x="700" y="-20" width="160" height="100" as="geometry" />
        </mxCell>
        <mxCell id="2ArWXH6vpnP7hn2-1Gg6-1795" value="&lt;font style=&quot;font-size: 16px;&quot;&gt;&lt;b&gt;Jerárquica&lt;/b&gt;&lt;/font&gt;&lt;div&gt;-Divide el trabajo por niveles de autoridad.&lt;/div&gt;" style="whiteSpace=wrap;html=1;fontSize=14;fillColor=#a20025;strokeColor=#6F0000;fontColor=#ffffff;rounded=1;shadow=0;labelBackgroundColor=none;strokeWidth=3;spacing=5;fontStyle=0;arcSize=7;direction=west;" parent="1" vertex="1">
          <mxGeometry x="330" y="-20" width="145" height="90" as="geometry" />
        </mxCell>
        <mxCell id="2ArWXH6vpnP7hn2-1Gg6-1797" value="" style="edgeStyle=none;rounded=1;jumpStyle=none;html=1;shadow=0;labelBackgroundColor=none;startArrow=none;startFill=0;jettySize=auto;orthogonalLoop=1;strokeColor=#A50040;strokeWidth=3;fontFamily=Helvetica;fontSize=14;fontColor=#FFFFFF;spacing=5;fontStyle=1;fillColor=#d80073;entryX=0;entryY=0.5;entryDx=0;entryDy=0;" parent="1" target="2ArWXH6vpnP7hn2-1Gg6-1792" edge="1">
          <mxGeometry relative="1" as="geometry">
            <mxPoint x="580" y="90" as="sourcePoint" />
            <mxPoint x="675" y="225.5" as="targetPoint" />
            <Array as="points">
              <mxPoint x="630" y="30" />
            </Array>
          </mxGeometry>
        </mxCell>
        <mxCell id="2ArWXH6vpnP7hn2-1Gg6-1798" value="" style="edgeStyle=none;rounded=1;jumpStyle=none;html=1;shadow=0;labelBackgroundColor=none;startArrow=none;startFill=0;jettySize=auto;orthogonalLoop=1;strokeColor=#A50040;strokeWidth=3;fontFamily=Helvetica;fontSize=14;fontColor=#FFFFFF;spacing=5;fontStyle=1;fillColor=#d80073;entryX=0;entryY=0.5;entryDx=0;entryDy=0;" parent="1" target="2ArWXH6vpnP7hn2-1Gg6-1795" edge="1">
          <mxGeometry relative="1" as="geometry">
            <mxPoint x="580" y="90" as="sourcePoint" />
            <mxPoint x="465" y="231" as="targetPoint" />
            <Array as="points">
              <mxPoint x="540" y="25" />
            </Array>
          </mxGeometry>
        </mxCell>
        <mxCell id="2ArWXH6vpnP7hn2-1Gg6-1799" value="" style="edgeStyle=none;rounded=1;jumpStyle=none;html=1;shadow=0;labelBackgroundColor=none;startArrow=none;startFill=0;jettySize=auto;orthogonalLoop=1;strokeColor=#A50040;strokeWidth=3;fontFamily=Helvetica;fontSize=14;fontColor=#FFFFFF;spacing=5;fontStyle=1;fillColor=#d80073;entryX=0.5;entryY=1;entryDx=0;entryDy=0;" parent="1" target="2ArWXH6vpnP7hn2-1Gg6-1790" edge="1">
          <mxGeometry relative="1" as="geometry">
            <mxPoint x="580" y="90" as="sourcePoint" />
            <mxPoint x="445" y="120" as="targetPoint" />
          </mxGeometry>
        </mxCell>
        <mxCell id="2ArWXH6vpnP7hn2-1Gg6-1802" value="" style="edgeStyle=none;rounded=0;jumpStyle=none;html=1;shadow=0;labelBackgroundColor=none;startArrow=none;startFill=0;endArrow=classic;endFill=1;jettySize=auto;orthogonalLoop=1;strokeColor=#F08705;strokeWidth=3;fontFamily=Helvetica;fontSize=14;fontColor=#FFFFFF;spacing=5;exitX=0.5;exitY=0;exitDx=0;exitDy=0;entryX=0;entryY=0.25;entryDx=0;entryDy=0;" parent="1" source="1764" target="2ArWXH6vpnP7hn2-1Gg6-1803" edge="1">
          <mxGeometry relative="1" as="geometry">
            <mxPoint x="231" y="343.25" as="sourcePoint" />
            <mxPoint x="270" y="320" as="targetPoint" />
            <Array as="points">
              <mxPoint x="265" y="269" />
            </Array>
          </mxGeometry>
        </mxCell>
        <mxCell id="2ArWXH6vpnP7hn2-1Gg6-1803" value="&lt;div&gt;&lt;span style=&quot;font-size: 16px;&quot;&gt;&lt;b&gt;Visión Empresarial&lt;/b&gt;&lt;/span&gt;&lt;/div&gt;&lt;div&gt;-Conocer el mercado en el que me muevo y saber como expandirme.&lt;br&gt;&lt;/div&gt;" style="rounded=1;whiteSpace=wrap;html=1;shadow=0;labelBackgroundColor=none;strokeColor=none;strokeWidth=3;fillColor=#f5af58;fontFamily=Helvetica;fontSize=14;fontColor=#FFFFFF;align=center;spacing=5;arcSize=7;perimeterSpacing=2;" parent="1" vertex="1">
          <mxGeometry x="300" y="240.5" width="175" height="120" as="geometry" />
        </mxCell>
        <mxCell id="z38FCFQycfxZ6EL0BGBn-1779" value="&lt;div style=&quot;text-align: center;&quot;&gt;&lt;span style=&quot;background-color: transparent; color: light-dark(rgb(255, 255, 255), rgb(18, 18, 18));&quot;&gt;&lt;b&gt;&lt;font style=&quot;font-size: 16px;&quot;&gt;Tamaño&lt;/font&gt;&lt;/b&gt;&lt;/span&gt;&lt;/div&gt;&lt;div style=&quot;text-align: center;&quot;&gt;&lt;font style=&quot;font-size: 15px;&quot;&gt;-Pequeña, Mediana y Grande.&amp;nbsp;&lt;/font&gt;&lt;/div&gt;" style="rounded=1;whiteSpace=wrap;html=1;shadow=0;labelBackgroundColor=none;strokeColor=none;strokeWidth=3;fillColor=#61c6ce;fontFamily=Helvetica;fontSize=14;fontColor=#FFFFFF;align=left;spacing=5;fontStyle=0;arcSize=7;perimeterSpacing=2;" vertex="1" parent="1">
          <mxGeometry x="1000" y="365.75" width="150" height="99.5" as="geometry" />
        </mxCell>
        <mxCell id="z38FCFQycfxZ6EL0BGBn-1780" value="" style="edgeStyle=none;rounded=1;jumpStyle=none;html=1;shadow=0;labelBackgroundColor=none;startArrow=none;startFill=0;jettySize=auto;orthogonalLoop=1;strokeColor=#12AAB5;strokeWidth=3;fontFamily=Helvetica;fontSize=14;fontColor=#FFFFFF;spacing=5;fontStyle=1;fillColor=#b0e3e6;exitX=1;exitY=0.5;exitDx=0;exitDy=0;entryX=0;entryY=0.5;entryDx=0;entryDy=0;" edge="1" parent="1" source="1771" target="z38FCFQycfxZ6EL0BGBn-1779">
          <mxGeometry relative="1" as="geometry">
            <mxPoint x="1010" y="414" as="sourcePoint" />
            <mxPoint x="1010" y="472" as="targetPoint" />
          </mxGeometry>
        </mxCell>
        <mxCell id="z38FCFQycfxZ6EL0BGBn-1783" value="&lt;b&gt;&lt;font style=&quot;font-size: 16px;&quot;&gt;&lt;i&gt;Informal&lt;/i&gt;&lt;/font&gt;&lt;/b&gt;" style="rounded=1;whiteSpace=wrap;html=1;shadow=0;labelBackgroundColor=none;strokeColor=#A50040;strokeWidth=3;fillColor=#d80073;fontFamily=Helvetica;fontSize=14;fontColor=#ffffff;align=center;spacing=5;fontStyle=0;arcSize=7;perimeterSpacing=2;" vertex="1" parent="1">
          <mxGeometry x="410" y="130" width="150" height="60" as="geometry" />
        </mxCell>
        <mxCell id="z38FCFQycfxZ6EL0BGBn-1784" value="&lt;b&gt;&lt;font style=&quot;font-size: 16px;&quot;&gt;&lt;i&gt;Formal&lt;/i&gt;&lt;/font&gt;&lt;/b&gt;" style="rounded=1;whiteSpace=wrap;html=1;shadow=0;labelBackgroundColor=none;strokeColor=#A50040;strokeWidth=3;fillColor=#d80073;fontFamily=Helvetica;fontSize=14;fontColor=#ffffff;align=center;spacing=5;fontStyle=0;arcSize=7;perimeterSpacing=2;" vertex="1" parent="1">
          <mxGeometry x="600" y="130" width="150" height="60" as="geometry" />
        </mxCell>
        <mxCell id="z38FCFQycfxZ6EL0BGBn-1785" value="" style="edgeStyle=none;rounded=1;jumpStyle=none;html=1;shadow=0;labelBackgroundColor=none;startArrow=none;startFill=0;jettySize=auto;orthogonalLoop=1;strokeColor=#A50040;strokeWidth=3;fontFamily=Helvetica;fontSize=14;fontColor=#FFFFFF;spacing=5;fontStyle=1;fillColor=#d80073;entryX=0.5;entryY=1;entryDx=0;entryDy=0;exitX=0.25;exitY=0;exitDx=0;exitDy=0;" edge="1" parent="1" source="1778" target="z38FCFQycfxZ6EL0BGBn-1783">
          <mxGeometry relative="1" as="geometry">
            <mxPoint x="350" y="266.5" as="sourcePoint" />
            <mxPoint x="461" y="314.5" as="targetPoint" />
          </mxGeometry>
        </mxCell>
        <mxCell id="z38FCFQycfxZ6EL0BGBn-1786" value="" style="edgeStyle=none;rounded=1;jumpStyle=none;html=1;shadow=0;labelBackgroundColor=none;startArrow=none;startFill=0;jettySize=auto;orthogonalLoop=1;strokeColor=#A50040;strokeWidth=3;fontFamily=Helvetica;fontSize=14;fontColor=#FFFFFF;spacing=5;fontStyle=1;fillColor=#d80073;entryX=0.5;entryY=1;entryDx=0;entryDy=0;exitX=0.75;exitY=0;exitDx=0;exitDy=0;" edge="1" parent="1" source="1778" target="z38FCFQycfxZ6EL0BGBn-1784">
          <mxGeometry relative="1" as="geometry">
            <mxPoint x="670" y="246" as="sourcePoint" />
            <mxPoint x="781" y="294" as="targetPoint" />
            <Array as="points" />
          </mxGeometry>
        </mxCell>
        <mxCell id="z38FCFQycfxZ6EL0BGBn-1787" value="" style="edgeStyle=none;rounded=1;jumpStyle=none;html=1;shadow=0;labelBackgroundColor=none;startArrow=none;startFill=0;jettySize=auto;orthogonalLoop=1;strokeColor=#A50040;strokeWidth=3;fontFamily=Helvetica;fontSize=14;fontColor=#FFFFFF;spacing=5;fontStyle=1;fillColor=#d80073;exitX=0.468;exitY=0.031;exitDx=0;exitDy=0;exitPerimeter=0;" edge="1" parent="1" source="z38FCFQycfxZ6EL0BGBn-1783">
          <mxGeometry relative="1" as="geometry">
            <mxPoint x="580" y="90" as="sourcePoint" />
            <mxPoint x="580" y="90" as="targetPoint" />
            <Array as="points">
              <mxPoint x="480" y="90" />
            </Array>
          </mxGeometry>
        </mxCell>
        <mxCell id="z38FCFQycfxZ6EL0BGBn-1788" value="" style="edgeStyle=none;rounded=1;jumpStyle=none;html=1;shadow=0;labelBackgroundColor=none;startArrow=none;startFill=0;jettySize=auto;orthogonalLoop=1;strokeColor=#A50040;strokeWidth=3;fontFamily=Helvetica;fontSize=14;fontColor=#FFFFFF;spacing=5;fontStyle=1;fillColor=#d80073;exitX=0.5;exitY=0;exitDx=0;exitDy=0;" edge="1" parent="1" source="z38FCFQycfxZ6EL0BGBn-1784">
          <mxGeometry relative="1" as="geometry">
            <mxPoint x="715" y="252" as="sourcePoint" />
            <mxPoint x="580" y="90" as="targetPoint" />
            <Array as="points">
              <mxPoint x="675" y="90" />
            </Array>
          </mxGeometry>
        </mxCell>
        <mxCell id="z38FCFQycfxZ6EL0BGBn-1789" value="" style="edgeStyle=none;rounded=0;jumpStyle=none;html=1;shadow=0;labelBackgroundColor=none;startArrow=none;startFill=0;endArrow=classic;endFill=1;jettySize=auto;orthogonalLoop=1;strokeColor=#2F5B7C;strokeWidth=3;fontFamily=Helvetica;fontSize=16;fontColor=#23445D;spacing=5;exitX=0.5;exitY=0;exitDx=0;exitDy=0;entryX=0.5;entryY=1;entryDx=0;entryDy=0;" edge="1" parent="1" source="1749" target="1778">
          <mxGeometry relative="1" as="geometry">
            <mxPoint x="665" y="426" as="sourcePoint" />
            <mxPoint x="743" y="426" as="targetPoint" />
          </mxGeometry>
        </mxCell>
        <mxCell id="z38FCFQycfxZ6EL0BGBn-1790" value="&lt;div style=&quot;&quot;&gt;&lt;span style=&quot;background-color: transparent; color: light-dark(rgb(255, 255, 255), rgb(18, 18, 18));&quot;&gt;&lt;b&gt;&lt;font style=&quot;font-size: 16px;&quot;&gt;Fin que persigue&lt;/font&gt;&lt;/b&gt;&lt;/span&gt;&lt;/div&gt;&lt;div style=&quot;&quot;&gt;&lt;font style=&quot;font-size: 15px;&quot;&gt;-Con fines lucrativos.&lt;/font&gt;&lt;/div&gt;&lt;div style=&quot;&quot;&gt;&lt;font style=&quot;font-size: 15px;&quot;&gt;-Sin fines lucrativos.&amp;nbsp;&lt;/font&gt;&lt;/div&gt;" style="rounded=1;whiteSpace=wrap;html=1;shadow=0;labelBackgroundColor=none;strokeColor=none;strokeWidth=3;fillColor=#61c6ce;fontFamily=Helvetica;fontSize=14;fontColor=#FFFFFF;align=center;spacing=5;fontStyle=0;arcSize=7;perimeterSpacing=2;" vertex="1" parent="1">
          <mxGeometry x="890" y="140.5" width="170" height="100" as="geometry" />
        </mxCell>
        <mxCell id="z38FCFQycfxZ6EL0BGBn-1791" value="" style="edgeStyle=none;rounded=1;jumpStyle=none;html=1;shadow=0;labelBackgroundColor=none;startArrow=none;startFill=0;jettySize=auto;orthogonalLoop=1;strokeColor=#12AAB5;strokeWidth=3;fontFamily=Helvetica;fontSize=14;fontColor=#FFFFFF;spacing=5;fontStyle=1;fillColor=#b0e3e6;exitX=0.5;exitY=0;exitDx=0;exitDy=0;entryX=0;entryY=0.5;entryDx=0;entryDy=0;" edge="1" parent="1" source="1771" target="z38FCFQycfxZ6EL0BGBn-1790">
          <mxGeometry relative="1" as="geometry">
            <mxPoint x="815" y="234.75" as="sourcePoint" />
            <mxPoint x="860" y="234.75" as="targetPoint" />
            <Array as="points">
              <mxPoint x="838" y="191" />
            </Array>
          </mxGeometry>
        </mxCell>
      </root>
    </mxGraphModel>
  </diagram>
</mxfile>
